<?xml version="1.0" standalone="no"?>
<!DOCTYPE svg PUBLIC "-//W3C//DTD SVG 20010904//EN"
 "http://www.w3.org/TR/2001/REC-SVG-20010904/DTD/svg10.dtd">
<svg version="1.0" xmlns="http://www.w3.org/2000/svg"
 width="377.000000pt" height="382.000000pt" viewBox="0 0 377.000000 382.000000"
 preserveAspectRatio="xMidYMid meet">

<g transform="translate(0.000000,382.000000) scale(0.100000,-0.100000)"
fill="#000000" stroke="none">
<path d="M0 1910 l0 -1910 1885 0 1885 0 0 1910 0 1910 -1885 0 -1885 0 0
-1910z m2947 1388 c191 -65 316 -197 381 -398 32 -99 42 -172 42 -307 l0 -123
-234 0 -234 0 -4 138 c-3 102 -8 145 -21 168 -81 154 -330 132 -378 -32 -22
-76 -17 -216 10 -297 41 -122 105 -202 371 -467 136 -135 268 -274 294 -309
159 -217 223 -453 197 -725 -6 -63 -21 -145 -32 -183 -69 -226 -225 -378 -439
-427 -144 -34 -350 -30 -481 9 -172 50 -307 172 -375 340 -47 114 -63 204 -70
405 l-7 170 236 0 237 0 0 -107 c1 -145 15 -246 42 -294 64 -114 282 -120 355
-10 32 48 43 94 43 186 0 203 -60 298 -395 630 -260 258 -312 319 -381 449
-84 158 -114 281 -114 469 0 251 57 429 179 559 135 144 270 190 541 184 143
-3 175 -7 237 -28z m-1697 -8 c110 -25 205 -77 270 -146 75 -80 95 -109 130
-197 48 -121 60 -206 60 -439 l0 -208 -214 0 -214 0 -4 208 c-3 132 -10 220
-18 242 -34 93 -105 140 -212 140 -81 0 -135 -17 -174 -56 -67 -68 -65 -32
-62 -1030 l3 -901 30 -49 c78 -128 290 -137 381 -17 47 62 55 130 52 453 l-3
275 -103 3 -102 3 2 207 3 207 318 0 318 0 -1 -532 c0 -507 -1 -537 -22 -625
-36 -159 -98 -267 -201 -357 -60 -51 -119 -82 -217 -112 -65 -20 -96 -23 -240
-23 -146 -1 -174 2 -240 23 -181 57 -288 146 -363 303 -25 51 -48 109 -51 128
-3 19 -11 55 -17 80 -8 31 -13 293 -16 865 -5 984 0 1066 72 1230 110 247 337
365 670 347 50 -2 124 -12 165 -22z"/>
<path d="M2556 3289 c-253 -29 -429 -179 -496 -422 -39 -141 -44 -376 -11
-517 24 -107 92 -243 185 -370 22 -30 151 -165 286 -300 271 -270 334 -349
372 -473 26 -85 31 -246 10 -315 -18 -58 -73 -117 -130 -139 -58 -22 -171 -22
-224 1 -104 45 -138 127 -138 334 l0 132 -201 0 -202 0 6 -162 c7 -189 23
-274 72 -376 77 -163 194 -260 370 -308 78 -21 297 -30 378 -15 241 45 393
176 465 401 60 188 57 442 -8 617 -71 192 -147 292 -440 583 -349 346 -399
427 -400 656 0 197 73 292 228 297 117 3 194 -41 235 -132 15 -35 22 -74 25
-158 l5 -113 198 0 199 0 0 53 c0 84 -19 226 -40 305 -86 316 -352 467 -744
421z"/>
</g>
</svg>
